# Hierarchical Translation and Rotation (.htr) file
# Generated by EVaRT
[Header]
FileType htr
DataType HTRS
FileVersion 1
NumSegments 23
NumFrames 7
DataFrameRate 120
EulerRotationOrder ZYX
CalibrationUnits mm
RotationUnits Degrees
GlobalAxisofGravity Y
BoneLengthAxis Y
ScaleFactor 1
[SegmentNames&Hierarchy]
#CHILD            PARENT
DaveRoot          GLOBAL
Spine1            DaveRoot
Spine2            Spine1
Spine3            Spine2
Spine4            Spine3
Neck              Spine4
Head              Neck
LClavicle         Spine4
LUpperArm         LClavicle
LLowerArm         LUpperArm
LHand             LLowerArm
RClavicle         Spine4
RUpperArm         RClavicle
RLowerArm         RUpperArm
RHand             RLowerArm
RUpperLeg         DaveRoot
RLowerLeg         RUpperLeg
RFoot             RLowerLeg
RToes             RFoot
LUpperLeg         DaveRoot
LLowerLeg         LUpperLeg
LFoot             LLowerLeg
LToes             LFoot
[BasePosition]
#SegmentName      Tx   Ty   Tz   Rx   Ry   Rz   BoneLength
DaveRoot          209.518790	1014.822220	-351.309218	15.931515	2.618173	-0.612188	100.000000
Spine1            0.000000	100.000000	0.000000	-16.793488	0.293500	-0.473802	100.000000
Spine2            0.000000	100.000000	0.000000	4.672625	0.349043	-0.357343	100.000000
Spine3            0.000000	100.000000	0.000000	10.998894	0.386292	-0.316706	100.000000
Spine4            0.000000	100.000000	0.000000	12.138707	1.462162	1.217268	100.000000
Neck              0.000000	100.000000	0.000000	12.810480	14.955418	1.620949	80.000000
Head              0.000000	80.000000	0.000000	-44.031424	-2.973179	-2.367844	200.000000
LClavicle         0.000000	100.000000	0.000000	-0.941684	-2.086145	-99.536471	200.000000
LUpperArm         0.000000	200.000000	0.000000	10.837043	12.737179	14.309854	300.000000
LLowerArm         0.000000	300.000000	0.000000	2.090205	2.175812	1.895763	200.000000
LHand             0.000000	200.000000	0.000000	-1.396534	-1.768569	8.793625	120.000000
RClavicle         0.000000	100.000000	0.000000	1.262055	-3.879913	108.124298	200.000000
RUpperArm         0.000000	200.000000	0.000000	10.866823	4.985308	-18.992585	300.000000
RLowerArm         0.000000	300.000000	0.000000	5.968673	-3.682026	-7.348670	200.000000
RHand             0.000000	200.000000	0.000000	-1.057110	-1.690862	-7.465634	120.000000
RUpperLeg         -115.911102	-10.000000	31.058285	24.909801	27.531946	-169.439912	530.000000
RLowerLeg         0.000000	530.000000	0.000000	-7.321572	0.479387	-2.520024	460.000000
RFoot             0.000000	460.000000	0.000000	82.352420	-1.863170	1.930421	130.000000
RToes             0.000000	130.000000	0.000000	17.737744	0.005479	-0.002881	100.000000
LUpperLeg         115.911102	-10.000000	31.058285	23.717246	9.590578	-171.144790	530.000000
LLowerLeg         0.000000	530.000000	0.000000	-5.150575	-3.275937	3.046484	460.000000
LFoot             0.000000	460.000000	0.000000	77.933010	-13.262104	9.769004	130.000000
LToes             0.000000	130.000000	0.000000	27.000770	-0.000000	-0.000086	100.000000
#Beginning of Data.
[DaveRoot]
#Fr	Tx	Ty	Tz	Rx	Ry	Rz	SF
718	1354.443507	51.483144	462.611012	-130.730761	-50.896648	167.534679	1.000000	
719	1354.672301	51.372865	461.876734	-130.481006	-51.174067	167.398099	1.000000	
720	1354.672301	51.372865	461.876734	-130.481006	-51.174067	167.398099	1.000000	
721	1354.368043	52.013547	461.548971	-130.252456	-51.290948	167.360791	1.000000	
722	1354.368043	52.013547	461.548971	-130.252456	-51.290948	167.360791	1.000000	
723	1354.261481	52.698629	461.156550	-130.298964	-51.296121	167.340555	1.000000	
724	1354.051769	52.995136	461.070579	-130.305626	-51.267001	167.409896	1.000000	
[Spine1]
#Fr	Tx	Ty	Tz	Rx	Ry	Rz	SF
718	0.000000	0.000000	0.000000	1.585757	0.258263	-3.891470	1.000000	
719	0.000000	0.000000	0.000000	1.867706	-0.076293	-4.076939	1.000000	
720	0.000000	0.000000	0.000000	1.867706	-0.076293	-4.076939	1.000000	
721	0.000000	0.000000	0.000000	1.743925	-0.206229	-4.134232	1.000000	
722	0.000000	0.000000	0.000000	1.743925	-0.206229	-4.134232	1.000000	
723	0.000000	0.000000	0.000000	1.981056	-0.389832	-4.242022	1.000000	
724	0.000000	0.000000	0.000000	1.892783	-0.364241	-4.239179	1.000000	
[Spine2]
#Fr	Tx	Ty	Tz	Rx	Ry	Rz	SF
718	0.000000	0.000000	0.000000	1.585757	0.258263	-3.891470	1.000000	
719	0.000000	0.000000	0.000000	1.867706	-0.076293	-4.076939	1.000000	
720	0.000000	0.000000	0.000000	1.867706	-0.076293	-4.076939	1.000000	
721	0.000000	0.000000	0.000000	1.743925	-0.206229	-4.134232	1.000000	
722	0.000000	0.000000	0.000000	1.743925	-0.206229	-4.134232	1.000000	
723	0.000000	0.000000	0.000000	1.981056	-0.389832	-4.242022	1.000000	
724	0.000000	0.000000	0.000000	1.892783	-0.364241	-4.239179	1.000000	
[Spine3]
#Fr	Tx	Ty	Tz	Rx	Ry	Rz	SF
718	0.000000	0.000000	0.000000	1.585757	0.258263	-3.891470	1.000000	
719	0.000000	0.000000	0.000000	1.867706	-0.076293	-4.076939	1.000000	
720	0.000000	0.000000	0.000000	1.867706	-0.076293	-4.076939	1.000000	
721	0.000000	0.000000	0.000000	1.743925	-0.206229	-4.134232	1.000000	
722	0.000000	0.000000	0.000000	1.743925	-0.206229	-4.134232	1.000000	
723	0.000000	0.000000	0.000000	1.981056	-0.389832	-4.242022	1.000000	
724	0.000000	0.000000	0.000000	1.892783	-0.364241	-4.239179	1.000000	
[Spine4]
#Fr	Tx	Ty	Tz	Rx	Ry	Rz	SF
718	0.000000	0.000000	0.000000	1.585757	0.258263	-3.891470	1.000000	
719	0.000000	0.000000	0.000000	1.867706	-0.076293	-4.076939	1.000000	
720	0.000000	0.000000	0.000000	1.867706	-0.076293	-4.076939	1.000000	
721	0.000000	0.000000	0.000000	1.743925	-0.206229	-4.134232	1.000000	
722	0.000000	0.000000	0.000000	1.743925	-0.206229	-4.134232	1.000000	
723	0.000000	0.000000	0.000000	1.981056	-0.389832	-4.242022	1.000000	
724	0.000000	0.000000	0.000000	1.892783	-0.364241	-4.239179	1.000000	
[Neck]
#Fr	Tx	Ty	Tz	Rx	Ry	Rz	SF
718	0.000000	0.000000	0.000000	-10.299702	12.796296	1.490258	1.000000	
719	0.000000	0.000000	0.000000	-11.020033	13.133249	0.933900	1.000000	
720	0.000000	0.000000	0.000000	-11.020033	13.133249	0.933900	1.000000	
721	0.000000	0.000000	0.000000	-10.410235	13.458783	1.081170	1.000000	
722	0.000000	0.000000	0.000000	-10.410235	13.458783	1.081170	1.000000	
723	0.000000	0.000000	0.000000	-11.008052	13.617817	0.580859	1.000000	
724	0.000000	0.000000	0.000000	-10.659947	13.654992	0.742286	1.000000	
[Head]
#Fr	Tx	Ty	Tz	Rx	Ry	Rz	SF
718	0.000000	0.000000	0.000000	-10.299702	12.796296	1.490258	1.000000	
719	0.000000	0.000000	0.000000	-11.020033	13.133249	0.933900	1.000000	
720	0.000000	0.000000	0.000000	-11.020033	13.133249	0.933900	1.000000	
721	0.000000	0.000000	0.000000	-10.410235	13.458783	1.081170	1.000000	
722	0.000000	0.000000	0.000000	-10.410235	13.458783	1.081170	1.000000	
723	0.000000	0.000000	0.000000	-11.008052	13.617817	0.580859	1.000000	
724	0.000000	0.000000	0.000000	-10.659947	13.654992	0.742286	1.000000	
[LClavicle]
#Fr	Tx	Ty	Tz	Rx	Ry	Rz	SF
718	0.000000	0.000000	0.000000	14.434315	-0.051910	-4.716178	1.000000	
719	0.000000	0.000000	0.000000	12.316417	-0.266656	-3.696727	1.000000	
720	0.000000	0.000000	0.000000	12.316417	-0.266656	-3.696727	1.000000	
721	0.000000	0.000000	0.000000	14.063380	-0.342782	-3.549749	1.000000	
722	0.000000	0.000000	0.000000	14.063380	-0.342782	-3.549749	1.000000	
723	0.000000	0.000000	0.000000	12.005631	-0.401800	-3.029144	1.000000	
724	0.000000	0.000000	0.000000	12.996242	-0.399830	-3.186024	1.000000	
[LUpperArm]
#Fr	Tx	Ty	Tz	Rx	Ry	Rz	SF
718	0.000000	0.000000	0.000000	40.030787	18.721536	-13.635224	1.000000	
719	0.000000	0.000000	0.000000	44.369247	18.564136	-12.038119	1.000000	
720	0.000000	0.000000	0.000000	44.369247	18.564136	-12.038119	1.000000	
721	0.000000	0.000000	0.000000	39.563396	18.680675	-14.215743	1.000000	
722	0.000000	0.000000	0.000000	39.563396	18.680675	-14.215743	1.000000	
723	0.000000	0.000000	0.000000	45.708075	19.141589	-12.144300	1.000000	
724	0.000000	0.000000	0.000000	41.981884	18.791451	-13.539940	1.000000	
[LLowerArm]
#Fr	Tx	Ty	Tz	Rx	Ry	Rz	SF
718	0.000000	0.000000	0.000000	4.470953	-0.000000	0.000000	1.000000	
719	0.000000	0.000000	0.000000	-0.494051	-0.000000	0.000000	1.000000	
720	0.000000	0.000000	0.000000	-0.494051	-0.000000	0.000000	1.000000	
721	0.000000	0.000000	0.000000	6.128559	-0.000000	0.000000	1.000000	
722	0.000000	0.000000	0.000000	6.128559	-0.000000	0.000000	1.000000	
723	0.000000	0.000000	0.000000	-4.045184	-0.000000	0.000000	1.000000	
724	0.000000	0.000000	0.000000	2.772350	-0.000000	0.000000	1.000000	
[LHand]
#Fr	Tx	Ty	Tz	Rx	Ry	Rz	SF
718	0.000000	0.000000	0.000000	11.865524	0.000000	-0.000000	1.000000	
719	0.000000	0.000000	0.000000	14.591176	0.000000	-0.000000	1.000000	
720	0.000000	0.000000	0.000000	14.591176	0.000000	-0.000000	1.000000	
721	0.000000	0.000000	0.000000	9.581052	0.000000	-0.000000	1.000000	
722	0.000000	0.000000	0.000000	9.581052	0.000000	-0.000000	1.000000	
723	0.000000	0.000000	0.000000	16.662443	0.000000	-0.000000	1.000000	
724	0.000000	0.000000	0.000000	11.468928	0.000000	-0.000000	1.000000	
[RClavicle]
#Fr	Tx	Ty	Tz	Rx	Ry	Rz	SF
718	0.000000	0.000000	0.000000	6.454403	-0.723295	6.041748	1.000000	
719	0.000000	0.000000	0.000000	5.810331	-0.697777	6.499307	1.000000	
720	0.000000	0.000000	0.000000	5.810331	-0.697777	6.499307	1.000000	
721	0.000000	0.000000	0.000000	6.641045	-0.792447	6.448998	1.000000	
722	0.000000	0.000000	0.000000	6.641045	-0.792447	6.448998	1.000000	
723	0.000000	0.000000	0.000000	6.215333	-0.769917	6.708566	1.000000	
724	0.000000	0.000000	0.000000	6.584036	-0.806821	6.630352	1.000000	
[RUpperArm]
#Fr	Tx	Ty	Tz	Rx	Ry	Rz	SF
718	0.000000	0.000000	0.000000	29.977438	-29.351610	48.945590	1.000000	
719	0.000000	0.000000	0.000000	32.491320	-28.306489	48.108430	1.000000	
720	0.000000	0.000000	0.000000	32.491320	-28.306489	48.108430	1.000000	
721	0.000000	0.000000	0.000000	30.948677	-27.132597	49.789364	1.000000	
722	0.000000	0.000000	0.000000	30.948677	-27.132597	49.789364	1.000000	
723	0.000000	0.000000	0.000000	33.162651	-27.412602	48.323324	1.000000	
724	0.000000	0.000000	0.000000	32.141671	-26.952187	49.185704	1.000000	
[RLowerArm]
#Fr	Tx	Ty	Tz	Rx	Ry	Rz	SF
718	0.000000	0.000000	0.000000	21.334526	-0.000000	-0.000000	1.000000	
719	0.000000	0.000000	0.000000	20.845161	-0.000000	-0.000000	1.000000	
720	0.000000	0.000000	0.000000	20.845161	-0.000000	-0.000000	1.000000	
721	0.000000	0.000000	0.000000	21.641042	-0.000000	-0.000000	1.000000	
722	0.000000	0.000000	0.000000	21.641042	-0.000000	-0.000000	1.000000	
723	0.000000	0.000000	0.000000	20.960842	-0.000000	-0.000000	1.000000	
724	0.000000	0.000000	0.000000	21.581534	-0.000000	-0.000000	1.000000	
[RHand]
#Fr	Tx	Ty	Tz	Rx	Ry	Rz	SF
718	0.000000	0.000000	0.000000	7.880766	-10.972695	1.152755	1.000000	
719	0.000000	0.000000	0.000000	7.922040	-12.119049	1.101692	1.000000	
720	0.000000	0.000000	0.000000	7.922040	-12.119049	1.101692	1.000000	
721	0.000000	0.000000	0.000000	7.395780	-13.271949	0.605649	1.000000	
722	0.000000	0.000000	0.000000	7.395780	-13.271949	0.605649	1.000000	
723	0.000000	0.000000	0.000000	7.773394	-13.186836	-0.071096	1.000000	
724	0.000000	0.000000	0.000000	7.284965	-13.492871	-0.016706	1.000000	
[RUpperLeg]
#Fr	Tx	Ty	Tz	Rx	Ry	Rz	SF
718	0.000000	0.000000	0.000000	5.532200	-1.530559	2.099499	1.000000	
719	0.000000	0.000000	0.000000	5.392053	-0.601199	2.123310	1.000000	
720	0.000000	0.000000	0.000000	5.392053	-0.601199	2.123310	1.000000	
721	0.000000	0.000000	0.000000	5.375031	-0.174004	2.175994	1.000000	
722	0.000000	0.000000	0.000000	5.375031	-0.174004	2.175994	1.000000	
723	0.000000	0.000000	0.000000	5.274252	-0.088788	2.076281	1.000000	
724	0.000000	0.000000	0.000000	5.294689	-0.138166	2.101047	1.000000	
[RLowerLeg]
#Fr	Tx	Ty	Tz	Rx	Ry	Rz	SF
718	0.000000	0.000000	0.000000	-8.146802	-0.000000	-0.000000	1.000000	
719	0.000000	0.000000	0.000000	-7.647253	0.000000	-0.000000	1.000000	
720	0.000000	0.000000	0.000000	-7.647253	0.000000	-0.000000	1.000000	
721	0.000000	0.000000	0.000000	-7.286258	-0.000000	-0.000000	1.000000	
722	0.000000	0.000000	0.000000	-7.286258	-0.000000	-0.000000	1.000000	
723	0.000000	0.000000	0.000000	-7.243478	-0.000000	-0.000000	1.000000	
724	0.000000	0.000000	0.000000	-7.246108	-0.000000	-0.000000	1.000000	
[RFoot]
#Fr	Tx	Ty	Tz	Rx	Ry	Rz	SF
718	0.000000	0.000000	0.000000	1.561262	0.851405	-4.107222	1.000000	
719	0.000000	0.000000	0.000000	1.477080	0.270047	-3.050599	1.000000	
720	0.000000	0.000000	0.000000	1.477080	0.270047	-3.050599	1.000000	
721	0.000000	0.000000	0.000000	1.235786	0.076691	-2.477314	1.000000	
722	0.000000	0.000000	0.000000	1.235786	0.076691	-2.477314	1.000000	
723	0.000000	0.000000	0.000000	1.156980	0.270461	-2.058843	1.000000	
724	0.000000	0.000000	0.000000	1.102488	0.385860	-1.964109	1.000000	
[RToes]
#Fr	Tx	Ty	Tz	Rx	Ry	Rz	SF
718	0.000000	0.000000	0.000000	3.754370	0.000000	0.000000	1.000000	
719	0.000000	0.000000	0.000000	4.037337	0.000000	0.000000	1.000000	
720	0.000000	0.000000	0.000000	4.037337	0.000000	0.000000	1.000000	
721	0.000000	0.000000	0.000000	4.092245	0.000000	0.000000	1.000000	
722	0.000000	0.000000	0.000000	4.092245	0.000000	0.000000	1.000000	
723	0.000000	0.000000	0.000000	3.786218	0.000000	0.000000	1.000000	
724	0.000000	0.000000	0.000000	3.655519	0.000000	0.000000	1.000000	
[LUpperLeg]
#Fr	Tx	Ty	Tz	Rx	Ry	Rz	SF
718	0.000000	0.000000	0.000000	10.705028	-8.468513	-5.394705	1.000000	
719	0.000000	0.000000	0.000000	10.673907	-7.902081	-5.283880	1.000000	
720	0.000000	0.000000	0.000000	10.673907	-7.902081	-5.283880	1.000000	
721	0.000000	0.000000	0.000000	10.661418	-7.970746	-5.256265	1.000000	
722	0.000000	0.000000	0.000000	10.661418	-7.970746	-5.256265	1.000000	
723	0.000000	0.000000	0.000000	10.397282	-8.530898	-5.315894	1.000000	
724	0.000000	0.000000	0.000000	10.357225	-8.662002	-5.301425	1.000000	
[LLowerLeg]
#Fr	Tx	Ty	Tz	Rx	Ry	Rz	SF
718	0.000000	0.000000	0.000000	-7.867144	-0.000000	-0.000000	1.000000	
719	0.000000	0.000000	0.000000	-7.503786	-0.000000	-0.000000	1.000000	
720	0.000000	0.000000	0.000000	-7.503786	-0.000000	-0.000000	1.000000	
721	0.000000	0.000000	0.000000	-7.100281	0.000000	0.000000	1.000000	
722	0.000000	0.000000	0.000000	-7.100281	0.000000	0.000000	1.000000	
723	0.000000	0.000000	0.000000	-6.695120	-0.000000	-0.000000	1.000000	
724	0.000000	0.000000	0.000000	-6.550978	-0.000000	-0.000000	1.000000	
[LFoot]
#Fr	Tx	Ty	Tz	Rx	Ry	Rz	SF
718	0.000000	0.000000	0.000000	3.571017	10.006441	-6.028563	1.000000	
719	0.000000	0.000000	0.000000	3.422205	10.594911	-5.635742	1.000000	
720	0.000000	0.000000	0.000000	3.422205	10.594911	-5.635742	1.000000	
721	0.000000	0.000000	0.000000	3.248428	10.667460	-5.890420	1.000000	
722	0.000000	0.000000	0.000000	3.248428	10.667460	-5.890420	1.000000	
723	0.000000	0.000000	0.000000	3.104545	10.714722	-6.523079	1.000000	
724	0.000000	0.000000	0.000000	3.040649	10.700310	-6.632647	1.000000	
[LToes]
#Fr	Tx	Ty	Tz	Rx	Ry	Rz	SF
718	0.000000	0.000000	0.000000	1.544711	-0.000000	-0.000000	1.000000	
719	0.000000	0.000000	0.000000	1.747760	-0.000000	-0.000000	1.000000	
720	0.000000	0.000000	0.000000	1.748333	-0.000000	-0.000000	1.000000	
721	0.000000	0.000000	0.000000	1.665193	-0.000000	-0.000000	1.000000	
722	0.000000	0.000000	0.000000	1.665766	-0.000000	-0.000000	1.000000	
723	0.000000	0.000000	0.000000	1.563804	-0.000000	-0.000000	1.000000	
724	0.000000	0.000000	0.000000	1.544985	-0.000000	-0.000000	1.000000	
